<svg width="104" height="51" viewBox="0 0 104 51" fill="none" xmlns="http://www.w3.org/2000/svg">
<path d="M1.3125 30.9688V9.125H12.6875V13.5H5.71875V17.9375H9.75V22.3438H5.71875V30.9688H1.3125ZM14.2812 26.875V25.2812C14.3021 23.9479 14.8646 22.9167 15.9688 22.1875C16.2396 22.0417 17.3333 21.6354 19.25 20.9688C21.4792 20.2188 22.5938 19.5521 22.5938 18.9688V18.25C22.5729 17.5 22.1146 17.0938 21.2188 17.0312V13.1875C22.7812 13.1875 24.0938 13.7188 25.1562 14.7812C26.1146 15.7604 26.5938 16.8229 26.5938 17.9688V26.125C26.6146 26.75 26.9062 27.0833 27.4688 27.125V31C26.1979 31 25.1771 30.6667 24.4062 30C23.5938 30.6458 22.5417 30.9792 21.25 31V27.1562C21.4167 27.1562 21.5729 27.1354 21.7188 27.0938C22.3021 26.9271 22.5938 26.5312 22.5938 25.9062V23.3438C22.0312 23.6771 20.9375 24.0729 19.3125 24.5312C18.6458 24.6979 18.2604 24.8125 18.1562 24.875C17.9062 25 17.7708 25.2396 17.75 25.5938V26.0312C17.75 26.1562 17.7604 26.2812 17.7812 26.4062C17.9062 26.9062 18.5 27.1562 19.5625 27.1562V31C18.1667 31 16.9792 30.6458 16 29.9375C14.8542 29.1042 14.2812 28.0833 14.2812 26.875ZM14.5 17.6562C14.5208 16.5938 14.9583 15.625 15.8125 14.75C16.8958 13.7083 18.1562 13.1875 19.5938 13.1875V17.0312C18.6354 17.0521 18.1458 17.7188 18.125 19.0312L14.5 17.6562ZM29.5625 31V13.1875H33.8125V15.1562C34.5417 14.2188 35.5312 13.5729 36.7812 13.2188C37.2188 13.0938 37.6562 13.0312 38.0938 13.0312H39.2188L38.25 17.2188C36.9375 17.2396 35.8021 17.8125 34.8438 18.9375C34.1562 19.75 33.8125 20.5938 33.8125 21.4688V31H29.5625ZM40.7188 31V18.0312C40.7188 16.9896 41.1771 15.9792 42.0938 15C43.2604 13.7917 44.6875 13.1771 46.375 13.1562V17.3125C45.5417 17.4375 45.0729 17.8542 44.9688 18.5625V31H40.7188ZM47.8125 17.3125V13.1562C49.2292 13.1771 50.4375 13.5625 51.4375 14.3125C52.3958 13.5417 53.5938 13.1562 55.0312 13.1562V17.3125C54.0729 17.3333 53.5833 17.75 53.5625 18.5625V31H49.3125V18.5625C49.2708 17.75 48.7708 17.3333 47.8125 17.3125ZM56.4375 17.3125V13.1562C58.4583 13.1562 60.0521 13.9583 61.2188 15.5625C61.8438 16.4375 62.1562 17.2604 62.1562 18.0312V31H57.9062V18.5625C57.8646 17.75 57.375 17.3333 56.4375 17.3125ZM64.2812 31V9.125H68.6562V31H64.2812ZM70.375 31V27.1562H70.5312C71.7812 27.1562 72.6146 26.6354 73.0312 25.5938C73.1771 25.2604 73.25 24.9167 73.25 24.5625C73.25 23.5208 72.8333 22.7708 72 22.3125C71.5833 22.0833 71.125 21.9688 70.625 21.9688H70.375V18.1562H70.625C71.7917 18.1562 72.5938 17.6562 73.0312 16.6562C73.1771 16.3021 73.25 15.9375 73.25 15.5625C73.25 14.5417 72.8229 13.7917 71.9688 13.3125C71.5312 13.0833 71.0521 12.9688 70.5312 12.9688H70.375V9.125H71.125C73.8333 9.125 75.7396 10.1146 76.8438 12.0938C77.3646 13.0521 77.625 14.1042 77.625 15.25C77.625 17.0625 77.0729 18.5312 75.9688 19.6562C75.8021 19.8021 75.6458 19.9375 75.5 20.0625C76.7083 20.9583 77.4062 22.3229 77.5938 24.1562C77.6146 24.4062 77.625 24.6458 77.625 24.875C77.625 26.8958 76.9167 28.4792 75.5 29.625C74.3333 30.5417 72.875 31 71.125 31H70.375ZM79.7812 26.1562V18C79.7812 16.9792 80.2292 15.9792 81.125 15C82.25 13.8125 83.6771 13.2083 85.4062 13.1875V17.25C84.4688 17.3333 83.9688 17.7292 83.9062 18.4375V25.7188C83.9479 26.5312 84.4479 26.9479 85.4062 26.9688V31.0312C83.3646 31.0312 81.7812 30.2083 80.6562 28.5625C80.0729 27.7083 79.7812 26.9062 79.7812 26.1562ZM86.8438 31.0312V26.9688C87.7188 26.8646 88.1979 26.4688 88.2812 25.7812L88.25 18.4375C88.1042 17.6875 87.625 17.2917 86.8125 17.25V13.1875C88.7708 13.1875 90.3021 13.9792 91.4062 15.5625C91.9896 16.4167 92.2812 17.2292 92.2812 18V26.1562C92.2812 27.1979 91.8333 28.2188 90.9375 29.2188C89.8542 30.4062 88.4896 31.0104 86.8438 31.0312ZM93.9062 17.2188V13.1875H96.0938V8.625H100.281V13.1875H102.344V17.25H100.281V25.5312C100.323 26.2812 100.708 26.6667 101.438 26.6875H102.344L103.281 31H101.406C98.6771 31 97.0104 29.9688 96.4062 27.9062C96.1979 27.1562 96.0938 26.2604 96.0938 25.2188V17.2188H93.9062Z" fill="#26682A"/>
<path d="M104 45L94 39.2265V50.7735L104 45ZM0 46L95 46V44L0 44L0 46Z" fill="#FFA000"/>
</svg>
