<svg width="40" height="42" viewBox="0 0 40 42" fill="none" xmlns="http://www.w3.org/2000/svg">
<path d="M18 8H12L20 0L28 8H22V16.86C20.5 17.78 19.16 18.92 18 20.24V8ZM40 20L32 12V18C28.5261 17.8571 25.1311 19.0607 22.5229 21.3597C19.9146 23.6586 18.2944 26.8757 18 30.34C16.5004 30.8724 15.273 31.9777 14.5869 33.4136C13.9009 34.8495 13.8121 36.4988 14.34 38C14.8724 39.4996 15.9777 40.727 17.4136 41.4131C18.8495 42.0991 20.4988 42.1879 22 41.66C23.4983 41.1258 24.7243 40.0203 25.4101 38.585C26.0959 37.1497 26.1857 35.5013 25.66 34C25.06 32.28 23.7 30.94 22 30.34C22.94 22.34 30.94 21.94 31.9 21.94V27.94L40 20ZM17.26 21.18C14.6063 19.132 11.3521 18.0144 8 18V12L0 20L8 28V22C10.68 22.06 13.26 23 15.28 24.8C15.78 23.52 16.44 22.3 17.26 21.18Z" fill="#2E7D32"/>
</svg>
