<svg width="33" height="32" viewBox="0 0 33 32" fill="none" xmlns="http://www.w3.org/2000/svg">
<path d="M16.104 7.48753C16.1429 6.28163 16.4751 4.50518 17.6311 3.33813C18.7041 2.25482 20.0105 1.72685 20.8241 1.48548C21.1382 1.39229 21.4395 1.62915 21.4241 1.95642C21.3695 3.11082 21.066 4.83267 20.2828 5.7551C19.5445 6.62465 18.3569 7.77773 16.6173 7.97174C16.3326 8.00349 16.0948 7.77387 16.104 7.48753Z" fill="#151515"/>
<path d="M19.0828 29.5594C19.9181 29.8794 20.7627 30.2029 21.5271 30.2029C23.1623 30.2029 27.9237 26.4302 28.0953 22.5118C28.1041 22.3105 27.9838 22.1308 27.8081 22.0325C26.5969 21.3547 24.6191 19.6671 24.5503 17.212C24.47 14.3509 25.9066 12.0784 26.9938 11.1384C27.2385 10.9268 27.3226 10.5538 27.1041 10.3152C26.1149 9.23491 24.1249 7.74897 22.3092 7.78545C20.9881 7.81199 19.7979 8.30405 18.7766 8.7263C17.9931 9.05025 17.3089 9.3331 16.7414 9.3331C16.2038 9.3331 15.5584 9.05206 14.8178 8.72951C13.8203 8.29513 12.6499 7.78545 11.337 7.78545C8.90507 7.78545 4.10002 9.80208 4.10001 17.5872C4.10001 21.7143 8.36049 30.3123 11.9556 30.2029C12.7319 30.2029 13.5616 29.8815 14.3849 29.5625C15.1956 29.2484 16.0001 28.9367 16.7414 28.9367C17.4571 28.9367 18.2655 29.2463 19.0828 29.5594Z" fill="#151515"/>
</svg>
