<svg width="45" height="45" viewBox="0 0 45 45" fill="none" xmlns="http://www.w3.org/2000/svg">
<path d="M18.8106 0.977633C13.9566 0.977633 9.55238 2.12626 6.29494 4.04495C3.03741 5.96382 0.863159 8.72945 0.863159 11.9085C0.863159 15.0529 2.99053 17.7969 6.18938 19.7132L3.5146 29.6651L12.6055 22.1798C14.5415 22.6091 16.6297 22.8419 18.8105 22.8419C23.6645 22.8419 28.0717 21.6933 31.3291 19.7744C34.5865 17.8557 36.7607 15.0872 36.7607 11.9083C36.7607 8.72945 34.5866 5.96363 31.3292 4.04504C28.0718 2.12626 23.6646 0.977539 18.8108 0.977539L18.8106 0.977633ZM18.8106 2.72954C23.3856 2.72954 27.5168 3.83298 30.4384 5.55385C33.3601 7.27482 35.0087 9.53326 35.0087 11.9082C35.0087 14.2837 33.3601 16.5448 30.4384 18.2658C27.5168 19.9868 23.3856 21.09 18.8106 21.09C14.2356 21.09 10.1042 19.9867 7.18247 18.2657C4.26094 16.5447 2.61516 14.2836 2.61516 11.9082C2.61516 9.53298 4.26094 7.27473 7.18266 5.55385C10.1042 3.83288 14.2353 2.72945 18.8103 2.72945L18.8106 2.72954ZM8.04966 7.43176V9.18376H16.7802V7.43166H8.04966V7.43176ZM18.5322 7.43176V9.18376H21.166V7.43166H18.5322V7.43176ZM22.9179 7.43176V9.18376H29.665V7.43166H22.9179V7.43176ZM8.04985 11.1729V12.9279H10.8302V11.1729H8.04966H8.04985ZM12.5822 11.1729V12.9279H18.7639V11.1729H12.5822ZM20.5187 11.1729V12.9279H24.0901V11.1729H20.5184H20.5187ZM25.842 11.1729V12.9279H29.6653V11.1729H25.8422H25.842ZM8.04985 14.6357V16.3879H14.6943V14.6357H8.04966H8.04985ZM16.4463 14.6357V16.3879H21.7929V14.6357H16.4463ZM23.545 14.6357L23.5449 16.3879H29.665V14.6357H23.545ZM32.2021 23.0966C25.1821 23.0966 19.4902 27.0118 19.4902 31.8419C19.4902 36.6719 25.1823 40.5869 32.2021 40.5869C33.9112 40.5869 35.5418 40.3544 37.0302 39.9337L43.4549 44.7295L41.1231 38.0705C43.4619 36.4844 44.914 34.28 44.914 31.8419C44.914 27.0121 39.2221 23.0969 32.2021 23.0969V23.0966ZM25.6074 27.0665H28.6924V28.8185H25.6072V27.0665H25.6074ZM30.4443 27.0665H38.914V28.8185H30.4443V27.0665ZM23.0409 30.9805H30.3828V32.7325H23.0409V30.9805H23.0409ZM32.1348 30.9805H34.1005V32.7325H32.1346L32.1348 30.9805ZM35.8525 30.9805H40.6338V32.7325H35.8525V30.9805ZM25.6075 34.6368H33.0194V36.3888H25.6074V34.6368H25.6075ZM34.7714 34.6368H38.914V36.3888H34.7714V34.6368Z" fill="#2E7D32"/>
</svg>
