<svg width="46" height="36" viewBox="0 0 46 36" fill="none" xmlns="http://www.w3.org/2000/svg">
<path d="M37.5143 22.3257C35.716 23.4189 33.6506 23.9938 31.5462 23.987C29.7832 23.973 28.0401 23.6124 26.4162 22.9257C25.1647 24.6926 24.4949 26.8055 24.4999 28.9707V34.5001C24.5004 34.7057 24.4586 34.9093 24.377 35.0981C24.2955 35.2868 24.1761 35.4569 24.0261 35.5975C23.8761 35.7382 23.6988 35.8465 23.5052 35.9158C23.3115 35.985 23.1058 36.0137 22.9006 36.0001C22.515 35.9666 22.1564 35.7885 21.8966 35.5016C21.6369 35.2147 21.4952 34.8402 21.4999 34.4532V32.1207L14.2587 24.8795C13.1823 25.2811 12.0438 25.4911 10.8949 25.5001C9.31333 25.504 7.76133 25.0713 6.40995 24.2495C2.32432 21.767 0.124948 16.0539 0.550573 8.96074C0.572003 8.59378 0.727436 8.24746 0.987361 7.98753C1.24729 7.7276 1.59361 7.57217 1.96057 7.55074C9.0537 7.13262 14.7668 9.32449 17.2418 13.4101C18.2142 15.0115 18.6387 16.886 18.4512 18.7501C18.4395 18.8945 18.3863 19.0325 18.2979 19.1473C18.2095 19.2621 18.0897 19.3489 17.9531 19.3971C17.8164 19.4453 17.6688 19.4528 17.5279 19.4189C17.387 19.3849 17.259 19.3109 17.1593 19.2057L13.5593 15.437C13.2757 15.1676 12.8981 15.0196 12.507 15.0246C12.1158 15.0296 11.7421 15.1872 11.4655 15.4638C11.1889 15.7404 11.0313 16.1141 11.0263 16.5053C11.0213 16.8964 11.1693 17.274 11.4387 17.5576L21.5412 27.917C21.5524 27.7707 21.5656 27.6245 21.5806 27.4801C21.9086 24.699 23.1358 22.1011 25.0756 20.0814L34.5612 10.0576C34.8427 9.7764 35.0009 9.3949 35.0011 8.99703C35.0012 8.59916 34.8433 8.21751 34.5621 7.93605C34.2809 7.65459 33.8994 7.49637 33.5015 7.49619C33.1037 7.49602 32.722 7.6539 32.4406 7.93512L23.2531 17.6514C23.1611 17.7488 23.0447 17.8198 22.916 17.857C22.7873 17.8942 22.651 17.8963 22.5213 17.863C22.3915 17.8297 22.2731 17.7622 22.1782 17.6676C22.0833 17.573 22.0155 17.4548 21.9818 17.3251C21.0931 14.0476 21.4849 10.7851 23.1818 7.98387C26.5306 2.45637 34.3231 -0.502385 44.0281 0.0676154C44.395 0.0890456 44.7414 0.244479 45.0013 0.504404C45.2612 0.76433 45.4166 1.11065 45.4381 1.47762C46.0006 11.1845 43.0418 18.977 37.5143 22.3257Z" fill="#2E7D32"/>
</svg>
