<svg width="38" height="39" viewBox="0 0 38 39" fill="none" xmlns="http://www.w3.org/2000/svg">
<path d="M21.116 38.846C20.564 38.846 20.0927 38.6593 19.702 38.286C19.3113 37.9113 19.116 37.448 19.116 36.896C19.116 36.6493 19.1587 36.4073 19.244 36.17C19.3293 35.9327 19.4713 35.718 19.67 35.526L21.116 34.192L22.562 35.526C22.7593 35.7167 22.9007 35.9313 22.986 36.17C23.0713 36.4087 23.1147 36.6507 23.116 36.896C23.116 37.448 22.92 37.9107 22.528 38.284C22.1373 38.6587 21.6667 38.846 21.116 38.846ZM14.216 36.038L12.924 34.746L18.016 29.654L19.308 30.946L14.216 36.038ZM27.116 33.038L24.924 30.846L27.116 28.654L29.308 30.846L27.116 33.038ZM9.116 33.038L6.924 30.846L9.116 28.654L11.308 30.846L9.116 33.038ZM10 26C7.22267 26 4.862 25.0273 2.918 23.082C0.972667 21.138 0 18.7773 0 16C0 13.4133 0.872 11.176 2.616 9.288C4.35867 7.40267 6.542 6.31467 9.166 6.024C10.1553 4.14933 11.5107 2.676 13.232 1.604C14.9547 0.534667 16.8773 0 19 0C21.872 0 24.3393 0.952 26.402 2.856C28.4647 4.76 29.6647 7.13267 30.002 9.974C32.4567 10.122 34.4033 10.9753 35.842 12.534C37.2807 14.094 38 15.916 38 18C38 20.2173 37.2213 22.1053 35.664 23.664C34.1053 25.2213 32.2173 26 30 26H10Z" fill="#2E7D32"/>
</svg>
